<?xml version="1.0" encoding="utf-8"?>
<!-- Generator: Adobe Illustrator 16.0.0, SVG Export Plug-In . SVG Version: 6.00 Build 0)  -->
<!DOCTYPE svg PUBLIC "-//W3C//DTD SVG 1.1//EN" "http://www.w3.org/Graphics/SVG/1.1/DTD/svg11.dtd">
<svg version="1.1" id="Layer_1" xmlns="http://www.w3.org/2000/svg" xmlns:xlink="http://www.w3.org/1999/xlink" x="0px" y="0px"
	 width="3285.371px" height="1079.137px" viewBox="0 0 3285.371 1079.137" enable-background="new 0 0 3285.371 1079.137"
	 xml:space="preserve">
<g>
	<path fill="#1EB9AF" d="M754.318,425.373c-15.477-35.589-36.67-66.99-62.983-93.317c-26.314-26.3-57.707-47.493-93.31-62.983
		c-35.589-15.457-74.009-23.294-114.198-23.294c-40.21,0-78.63,7.837-114.206,23.294c-35.636,15.504-67.199,36.703-93.803,63.003
		c-26.604,26.293-47.783,57.674-62.936,93.263c-15.159,35.548-22.841,73.982-22.841,114.232c0,40.257,7.682,78.69,22.834,114.231
		c15.174,35.623,36.36,67.166,62.964,93.757c26.597,26.61,58.139,47.79,93.748,62.956c35.542,15.16,73.976,22.842,114.24,22.842
		c40.243,0,78.676-7.682,114.232-22.842c35.575-15.153,66.949-36.325,93.256-62.937c26.313-26.617,47.512-58.18,63.003-93.81
		c15.457-35.575,23.294-73.995,23.294-114.198C777.612,499.375,769.775,460.955,754.318,425.373 M653.719,610.952
		c-9.701,21.996-22.996,41.527-39.521,58.045c-16.504,16.504-36.035,29.8-58.038,39.521c-22.085,9.734-46.101,14.673-71.381,14.673
		c-25.314,0-49.323-4.938-71.381-14.673c-21.996-9.701-41.534-23.003-58.052-39.521c-16.551-16.551-29.698-36.103-39.074-58.105
		c-9.404-22.052-14.174-46.048-14.174-71.32c0-25.26,4.77-49.256,14.18-71.32c9.377-22.01,22.524-41.561,39.068-58.112
		c16.511-16.511,36.042-29.807,58.052-39.521c22.071-9.735,46.088-14.674,71.381-14.674c25.266,0,49.283,4.939,71.381,14.674
		c22.017,9.735,41.547,23.03,58.038,39.521c16.525,16.524,29.82,36.055,39.521,58.051c9.742,22.071,14.68,46.088,14.68,71.381
		C668.399,564.878,663.461,588.895,653.719,610.952"/>
	<path fill="#1EB9AF" d="M2347.846,543.084l-8.006-8.701h1.02c-14.111-12.965-30.164-23.665-47.844-31.867
		c-21.063-9.762-44.445-14.707-69.481-14.707l-140.62-0.115c-15.579-3.378-28.969-11.269-39.799-23.456
		c-10.943-12.322-16.496-27.212-16.496-44.256v-0.953c0-17.038,5.708-32.083,16.97-44.737h0.007
		c11.214-12.564,25.496-20.313,42.453-23.022l0.816-0.067h231.967c28.894-0.034,52.303-23.47,52.303-52.235
		c0-28.8-23.436-52.236-52.236-52.236h-230.141c-25.037,0-48.391,5.101-69.429,15.154c-20.53,9.829-38.845,22.847-54.457,38.717
		v0.864l-1.372,1.486c-14.065,15.289-25.395,33.137-33.67,53.061c-8.242,19.82-12.424,41.345-12.424,63.97
		c0,22.638,4.182,44.162,12.424,63.969c8.275,19.937,19.604,37.785,33.67,53.053l1.372,1.486v0.872
		c15.612,15.869,33.927,28.887,54.457,38.71c21.023,10.052,44.379,15.153,69.429,15.153l139.633,0.107
		c16.188,3.386,29.895,11.101,40.73,22.93c10.984,12.024,16.552,26.771,16.552,43.844v0.953c0,17.064-5.715,32.116-16.978,44.735
		c-11.215,12.579-25.488,20.328-42.438,23.024l-0.818,0.067h-255.798c-28.799,0-52.234,23.436-52.234,52.234
		c0,28.801,23.436,52.235,52.234,52.235h253.894c25.036,0,48.391-5.101,69.428-15.153c17.7-8.471,33.772-19.334,47.905-32.365
		h-1.033l8.012-8.703c14.072-15.287,25.401-33.136,33.67-53.052c8.256-19.848,12.755-41.419,13.37-64.118
		c-0.615-22.396-5.114-43.967-13.37-63.828C2373.247,576.234,2361.918,558.387,2347.846,543.084"/>
	<path fill="#1EB9AF" d="M1819.631,245.786h-382.495c-30.63,0-55.552,24.915-55.559,55.545
		c0.007,30.611,24.902,55.532,55.492,55.566h136.236v420.908c0,30.596,24.894,55.519,55.491,55.553
		c30.698-0.034,55.587-24.93,55.62-55.492V356.897h135.148c30.73-0.034,55.626-24.962,55.626-55.559
		C1875.19,270.708,1850.269,245.786,1819.631,245.786"/>
	<path fill="#1EB9AF" d="M1263.05,245.786c-30.562,0-55.484,24.868-55.552,55.431v300.048c0,16.443-3.175,32.292-9.432,47.101
		c-6.256,14.802-14.93,27.812-25.78,38.663c-10.876,10.877-23.888,19.558-38.676,25.793c-29.577,12.499-64.619,12.505-94.194-0.007
		c-14.782-6.229-27.793-14.909-38.669-25.786c-10.884-10.878-19.559-23.882-25.787-38.669c-6.256-14.782-9.431-30.631-9.431-47.095
		V301.271c-0.034-30.59-24.949-55.485-55.546-55.485c-30.637,0-55.559,24.915-55.559,55.545v299.934
		c0,32.062,6.087,62.511,18.085,90.492c12.032,28.077,28.746,52.918,49.682,73.833c20.915,20.936,45.756,37.65,73.819,49.675
		c28.01,12.005,58.457,18.093,90.5,18.093c32.042,0,62.49-6.088,90.499-18.093c28.037-12.011,52.877-28.725,73.834-49.675
		c20.949-20.941,37.663-45.783,49.675-73.826c12.004-28.016,18.091-58.464,18.091-90.499V301.338
		C1318.608,270.708,1293.687,245.786,1263.05,245.786"/>
	<path fill="#1EB9AF" d="M3040.887,298.872c-16.538-16.22-36.123-29.279-58.215-38.805c-22.023-9.479-45.924-14.281-71.029-14.281
		c-23.888,0-46.702,4.344-67.807,12.91c-21.139,8.58-40.243,20.699-56.795,36.015l-3.595,3.317l-3.525-3.385
		c-15.917-15.281-34.833-27.374-56.229-35.94c-21.441-8.573-44.432-12.917-68.313-12.917c-25.104,0-49.006,4.803-71.029,14.281
		c-22.091,9.526-41.676,22.585-58.214,38.805c-16.558,16.254-29.914,35.677-39.703,57.728
		c-9.783,22.003-14.741,45.878-14.741,70.975v350.229c0,30.597,24.896,55.519,55.491,55.553c30.726-0.034,55.62-24.956,55.62-55.553
		l0.094-360.7c3.365-17.524,11.755-32.245,24.936-43.743c13.269-11.559,29.259-17.417,47.547-17.417
		c19.686,0,36.893,7.222,51.127,21.456c14.234,14.235,21.449,31.435,21.449,51.121v349.283c0,30.597,24.895,55.519,55.491,55.553
		c30.726-0.034,55.62-24.956,55.62-55.553V421.88c2.061-18.848,9.958-34.468,23.497-46.999
		c13.585-12.565,30.097-18.937,49.079-18.937c18.322,0,34.495,6.195,48.081,18.417c13.504,12.16,21.726,27.238,24.435,44.83
		l0.061,0.791v357.822c0,30.597,24.896,55.519,55.492,55.553c30.725-0.034,55.619-24.956,55.619-55.553V427.575
		c0-25.077-4.959-48.959-14.74-70.975C3070.78,334.528,3057.424,315.106,3040.887,298.872"/>
</g>
</svg>
